<svg width="112" height="24" viewBox="0 0 112 24" fill="none" xmlns="http://www.w3.org/2000/svg">
    <g clip-path="url(#clip0_4002_5194)">
        <path d="M30.6042 17.9757C33.8712 17.9757 35.8606 16.4242 35.8606 13.7413C35.8606 9.21489 29.0893 10.2005 29.0893 9.05057C29.0893 8.74033 29.2901 8.50305 30.0202 8.50305C31.17 8.50305 32.5389 8.90457 33.5974 9.70769L35.5686 7.09767C34.1815 5.96607 32.3929 5.40027 30.4034 5.40027C27.0634 5.40027 25.3477 7.37145 25.3477 9.43385C25.3477 14.2341 32.1374 13.0477 32.1374 14.2158C32.1374 14.6903 31.4802 14.8729 30.7867 14.8729C29.1441 14.8729 27.7752 14.1793 26.8626 13.3032L24.9462 16.041C26.242 17.2091 28.0125 17.9757 30.6042 17.9757ZM48.6602 17.7567L43.86 11.2408L48.4594 5.58279H43.9513L40.7573 10.1457V5.58279H37.0704V17.7567H40.7573V14.3801L41.4326 13.4675L44.1703 17.7567H48.6602ZM54.5894 17.9757C58.3493 17.9757 61.2513 15.4204 61.2513 11.6788C61.2513 7.93725 58.3493 5.38202 54.5894 5.38202C50.8296 5.38202 47.9276 7.93725 47.9276 11.6788C47.9276 15.4204 50.8296 17.9757 54.5894 17.9757ZM54.5894 14.7269C52.819 14.7269 51.6692 13.3763 51.6692 11.6788C51.6692 9.98145 52.819 8.63081 54.5894 8.63081C56.3598 8.63081 57.5097 9.98145 57.5097 11.6788C57.5097 13.3763 56.3598 14.7269 54.5894 14.7269ZM73.4548 17.7567L71.2464 13.4493C72.2137 12.9747 73.4366 11.8614 73.4366 9.76241C73.4366 7.48095 71.9034 5.58279 69.0562 5.58279H62.5586V17.7567H66.2454V13.9238H67.5778L69.257 17.7567H73.4548ZM68.4904 10.7115H66.2454V8.79505H68.4904C69.111 8.79505 69.695 9.08713 69.695 9.74417C69.695 10.4195 69.111 10.7115 68.4904 10.7115ZM83.2328 17.7567V14.5443H78.6152V5.58279H74.9284V17.7567H83.2328ZM88.4008 17.7567V5.58279H84.7136V17.7567H88.4008ZM94.0504 17.7567V13.212H99.4712V9.99969H94.0504V8.79505H99.5992V5.58279H90.364V17.7567H94.0504ZM110.401 17.7567V14.5443H104.852V13.212H110.273V9.99969H104.852V8.79505H110.401V5.58279H101.165V17.7567H110.401Z" fill="black"/>
        <path d="M7.06842 16.061L0 11.9625V16.2794C0.000339416 16.8109 0.140162 17.333 0.405408 17.7931C0.67065 18.2531 1.05197 18.6351 1.511 18.9004L7.67026 22.4721V17.1017C7.66871 16.8907 7.61238 16.6838 7.50683 16.5013C7.4013 16.3187 7.2502 16.1671 7.06842 16.061Z" fill="#0376FD"/>
        <path d="M8.72024 7.64537C8.40088 7.46066 8.13568 7.19477 7.95135 6.87448C7.76702 6.5542 7.67007 6.1908 7.67028 5.82094V0.489075L1.51102 4.06079C1.05199 4.3261 0.670675 4.70801 0.405432 5.16811C0.140186 5.62818 0.000363464 6.15025 2.40474e-05 6.68176V9.77809C-0.00174888 10.1483 0.0945416 10.5123 0.279038 10.8328C0.463537 11.1535 0.729617 11.4191 1.05004 11.6025L7.54221 15.367C7.84346 15.541 8.09336 15.792 8.26656 16.0943C8.43976 16.3968 8.53 16.7398 8.52824 17.0886V22.5103L14.6874 18.9387C15.1465 18.6734 15.5278 18.2915 15.793 17.8314C16.0582 17.3713 16.1981 16.8492 16.1985 16.3177V13.2214C16.2002 12.8512 16.1039 12.4871 15.9194 12.1666C15.735 11.846 15.4689 11.5804 15.1484 11.397L8.72024 7.64537Z" fill="#03B2FD"/>
        <path d="M9.13004 6.88727L16.1984 10.9858V6.66887C16.1981 6.13732 16.0582 5.61529 15.793 5.15519C15.5278 4.69508 15.1464 4.31321 14.6874 4.04787L8.5282 0.476166V5.83374C8.52796 6.04681 8.58348 6.25617 8.68908 6.44102C8.79468 6.62586 8.94668 6.77972 9.13004 6.88727Z" fill="#0376FD"/>
    </g>
    <defs>
        <clipPath id="clip0_4002_5194">
            <rect width="112" height="24" fill="white"/>
        </clipPath>
    </defs>
</svg>
